<svg width="1000" height="600" viewBox="0 0 1000 600" fill="none" xmlns="http://www.w3.org/2000/svg">
<g id="Frame 1">
<g id="PLACE_Interaction_Success">
<rect id="Rectangle 3" x="360" y="384" width="285" height="155" fill="#417B32"/>
<path id="Well done" d="M378.758 462L367.224 419.818H372.414L381.23 454.173H381.642L390.622 419.818H396.389L405.369 454.173H405.781L414.596 419.818H419.787L408.252 462H402.98L393.67 428.386H393.341L384.031 462H378.758ZM435.811 462.659C432.762 462.659 430.133 461.986 427.922 460.641C425.725 459.281 424.029 457.386 422.835 454.956C421.654 452.512 421.064 449.67 421.064 446.429C421.064 443.188 421.654 440.332 422.835 437.861C424.029 435.375 425.691 433.439 427.819 432.053C429.961 430.652 432.46 429.952 435.316 429.952C436.964 429.952 438.591 430.226 440.198 430.776C441.804 431.325 443.267 432.217 444.585 433.453C445.903 434.675 446.953 436.295 447.736 438.314C448.519 440.332 448.91 442.818 448.91 445.77V447.83H424.524V443.628H443.967C443.967 441.843 443.61 440.25 442.896 438.849C442.196 437.449 441.193 436.344 439.889 435.533C438.598 434.723 437.074 434.318 435.316 434.318C433.38 434.318 431.705 434.799 430.291 435.76C428.89 436.707 427.812 437.943 427.057 439.467C426.302 440.991 425.924 442.625 425.924 444.369V447.17C425.924 449.56 426.336 451.585 427.16 453.246C427.998 454.894 429.158 456.151 430.641 457.016C432.124 457.867 433.847 458.293 435.811 458.293C437.088 458.293 438.241 458.114 439.271 457.757C440.315 457.386 441.214 456.837 441.969 456.109C442.724 455.368 443.308 454.448 443.72 453.349L448.416 454.668C447.922 456.26 447.091 457.661 445.924 458.869C444.757 460.064 443.315 460.998 441.598 461.67C439.882 462.33 437.953 462.659 435.811 462.659ZM461.165 419.818V462H456.304V419.818H461.165ZM474.929 419.818V462H470.068V419.818H474.929ZM512.09 462.659C509.454 462.659 507.126 461.993 505.108 460.661C503.089 459.316 501.51 457.421 500.371 454.977C499.231 452.519 498.661 449.615 498.661 446.264C498.661 442.941 499.231 440.058 500.371 437.614C501.51 435.17 503.096 433.281 505.129 431.95C507.161 430.618 509.509 429.952 512.173 429.952C514.232 429.952 515.859 430.295 517.054 430.982C518.262 431.654 519.182 432.423 519.814 433.288C520.459 434.14 520.96 434.84 521.317 435.389H521.729V419.818H526.59V462H521.894V457.139H521.317C520.96 457.716 520.452 458.444 519.793 459.322C519.134 460.187 518.194 460.963 516.972 461.65C515.75 462.323 514.122 462.659 512.09 462.659ZM512.749 458.293C514.699 458.293 516.347 457.785 517.692 456.768C519.038 455.739 520.061 454.317 520.761 452.505C521.462 450.679 521.812 448.571 521.812 446.182C521.812 443.82 521.469 441.754 520.782 439.982C520.095 438.197 519.079 436.81 517.734 435.822C516.388 434.819 514.727 434.318 512.749 434.318C510.69 434.318 508.973 434.847 507.6 435.904C506.241 436.948 505.218 438.369 504.531 440.168C503.858 441.953 503.522 443.957 503.522 446.182C503.522 448.434 503.865 450.48 504.552 452.32C505.252 454.146 506.282 455.601 507.641 456.686C509.014 457.757 510.717 458.293 512.749 458.293ZM549.02 462.659C546.164 462.659 543.658 461.979 541.502 460.62C539.36 459.261 537.685 457.359 536.477 454.915C535.282 452.471 534.685 449.615 534.685 446.347C534.685 443.051 535.282 440.174 536.477 437.717C537.685 435.259 539.36 433.35 541.502 431.991C543.658 430.631 546.164 429.952 549.02 429.952C551.876 429.952 554.375 430.631 556.517 431.991C558.673 433.35 560.348 435.259 561.543 437.717C562.751 440.174 563.355 443.051 563.355 446.347C563.355 449.615 562.751 452.471 561.543 454.915C560.348 457.359 558.673 459.261 556.517 460.62C554.375 461.979 551.876 462.659 549.02 462.659ZM549.02 458.293C551.189 458.293 552.974 457.737 554.375 456.624C555.776 455.512 556.812 454.05 557.485 452.237C558.158 450.425 558.494 448.461 558.494 446.347C558.494 444.232 558.158 442.262 557.485 440.435C556.812 438.609 555.776 437.133 554.375 436.007C552.974 434.881 551.189 434.318 549.02 434.318C546.85 434.318 545.065 434.881 543.665 436.007C542.264 437.133 541.228 438.609 540.555 440.435C539.882 442.262 539.545 444.232 539.545 446.347C539.545 448.461 539.882 450.425 540.555 452.237C541.228 454.05 542.264 455.512 543.665 456.624C545.065 457.737 546.85 458.293 549.02 458.293ZM575.636 442.969V462H570.775V430.364H575.471V435.307H575.883C576.624 433.7 577.75 432.41 579.261 431.435C580.771 430.446 582.721 429.952 585.11 429.952C587.252 429.952 589.127 430.391 590.733 431.27C592.34 432.135 593.589 433.453 594.482 435.224C595.374 436.982 595.82 439.206 595.82 441.898V462H590.96V442.227C590.96 439.742 590.314 437.806 589.024 436.419C587.733 435.018 585.962 434.318 583.71 434.318C582.158 434.318 580.771 434.655 579.549 435.327C578.341 436 577.387 436.982 576.686 438.273C575.986 439.563 575.636 441.129 575.636 442.969ZM617.967 462.659C614.919 462.659 612.289 461.986 610.078 460.641C607.882 459.281 606.186 457.386 604.991 454.956C603.81 452.512 603.22 449.67 603.22 446.429C603.22 443.188 603.81 440.332 604.991 437.861C606.186 435.375 607.847 433.439 609.975 432.053C612.118 430.652 614.617 429.952 617.473 429.952C619.12 429.952 620.748 430.226 622.354 430.776C623.961 431.325 625.423 432.217 626.741 433.453C628.059 434.675 629.11 436.295 629.892 438.314C630.675 440.332 631.066 442.818 631.066 445.77V447.83H606.68V443.628H626.123C626.123 441.843 625.766 440.25 625.052 438.849C624.352 437.449 623.35 436.344 622.045 435.533C620.754 434.723 619.23 434.318 617.473 434.318C615.537 434.318 613.861 434.799 612.447 435.76C611.047 436.707 609.969 437.943 609.213 439.467C608.458 440.991 608.081 442.625 608.081 444.369V447.17C608.081 449.56 608.493 451.585 609.316 453.246C610.154 454.894 611.314 456.151 612.797 457.016C614.28 457.867 616.003 458.293 617.967 458.293C619.244 458.293 620.397 458.114 621.427 457.757C622.471 457.386 623.37 456.837 624.125 456.109C624.881 455.368 625.464 454.448 625.876 453.349L630.572 454.668C630.078 456.26 629.247 457.661 628.08 458.869C626.913 460.064 625.471 460.998 623.755 461.67C622.038 462.33 620.109 462.659 617.967 462.659Z" fill="white"/>
</g>
<g id="PLACE_Interaction">
<rect id="Rectangle 1" x="360" y="220" width="285" height="155" fill="#EDBB0B"/>
<path id="Please Click me" d="M405.73 282V235.455H421.457C425.109 235.455 428.094 236.114 430.412 237.432C432.745 238.735 434.473 240.5 435.594 242.727C436.715 244.955 437.276 247.439 437.276 250.182C437.276 252.924 436.715 255.417 435.594 257.659C434.488 259.902 432.776 261.689 430.457 263.023C428.139 264.341 425.17 265 421.548 265H410.276V260H421.366C423.866 260 425.874 259.568 427.389 258.705C428.904 257.841 430.003 256.674 430.685 255.205C431.382 253.72 431.73 252.045 431.73 250.182C431.73 248.318 431.382 246.652 430.685 245.182C430.003 243.712 428.897 242.561 427.366 241.727C425.836 240.879 423.806 240.455 421.276 240.455H411.366V282H405.73ZM450.991 235.455V282H445.628V235.455H450.991ZM475.452 282.727C472.088 282.727 469.187 281.985 466.747 280.5C464.323 279 462.452 276.909 461.134 274.227C459.83 271.53 459.179 268.394 459.179 264.818C459.179 261.242 459.83 258.091 461.134 255.364C462.452 252.621 464.285 250.485 466.634 248.955C468.997 247.409 471.755 246.636 474.906 246.636C476.724 246.636 478.52 246.939 480.293 247.545C482.065 248.152 483.679 249.136 485.134 250.5C486.588 251.848 487.747 253.636 488.611 255.864C489.474 258.091 489.906 260.833 489.906 264.091V266.364H462.997V261.727H484.452C484.452 259.758 484.058 258 483.27 256.455C482.497 254.909 481.391 253.689 479.952 252.795C478.527 251.902 476.846 251.455 474.906 251.455C472.77 251.455 470.921 251.985 469.361 253.045C467.815 254.091 466.626 255.455 465.793 257.136C464.959 258.818 464.543 260.621 464.543 262.545V265.636C464.543 268.273 464.997 270.508 465.906 272.341C466.83 274.159 468.111 275.545 469.747 276.5C471.384 277.439 473.285 277.909 475.452 277.909C476.861 277.909 478.134 277.712 479.27 277.318C480.421 276.909 481.414 276.303 482.247 275.5C483.08 274.682 483.724 273.667 484.179 272.455L489.361 273.909C488.815 275.667 487.899 277.212 486.611 278.545C485.323 279.864 483.732 280.894 481.838 281.636C479.944 282.364 477.815 282.727 475.452 282.727ZM508.338 282.818C506.126 282.818 504.118 282.402 502.315 281.568C500.512 280.72 499.08 279.5 498.02 277.909C496.959 276.303 496.429 274.364 496.429 272.091C496.429 270.091 496.823 268.47 497.611 267.227C498.399 265.97 499.452 264.985 500.77 264.273C502.088 263.561 503.543 263.03 505.134 262.682C506.74 262.318 508.353 262.03 509.974 261.818C512.096 261.545 513.815 261.341 515.134 261.205C516.467 261.053 517.437 260.803 518.043 260.455C518.664 260.106 518.974 259.5 518.974 258.636V258.455C518.974 256.212 518.361 254.47 517.134 253.227C515.921 251.985 514.08 251.364 511.611 251.364C509.05 251.364 507.043 251.924 505.588 253.045C504.134 254.167 503.111 255.364 502.52 256.636L497.429 254.818C498.338 252.697 499.55 251.045 501.065 249.864C502.596 248.667 504.262 247.833 506.065 247.364C507.884 246.879 509.671 246.636 511.429 246.636C512.55 246.636 513.838 246.773 515.293 247.045C516.762 247.303 518.179 247.841 519.543 248.659C520.921 249.477 522.065 250.712 522.974 252.364C523.884 254.015 524.338 256.227 524.338 259V282H518.974V277.273H518.702C518.338 278.03 517.732 278.841 516.884 279.705C516.035 280.568 514.906 281.303 513.497 281.909C512.088 282.515 510.368 282.818 508.338 282.818ZM509.156 278C511.277 278 513.065 277.583 514.52 276.75C515.99 275.917 517.096 274.841 517.838 273.523C518.596 272.205 518.974 270.818 518.974 269.364V264.455C518.747 264.727 518.247 264.977 517.474 265.205C516.717 265.417 515.838 265.606 514.838 265.773C513.853 265.924 512.891 266.061 511.952 266.182C511.027 266.288 510.277 266.379 509.702 266.455C508.308 266.636 507.005 266.932 505.793 267.341C504.596 267.735 503.626 268.333 502.884 269.136C502.156 269.924 501.793 271 501.793 272.364C501.793 274.227 502.482 275.636 503.861 276.591C505.255 277.53 507.02 278 509.156 278ZM558.855 254.909L554.037 256.273C553.734 255.47 553.287 254.689 552.696 253.932C552.12 253.159 551.332 252.523 550.332 252.023C549.332 251.523 548.052 251.273 546.491 251.273C544.355 251.273 542.575 251.765 541.151 252.75C539.741 253.72 539.037 254.955 539.037 256.455C539.037 257.788 539.522 258.841 540.491 259.614C541.461 260.386 542.976 261.03 545.037 261.545L550.219 262.818C553.34 263.576 555.666 264.735 557.196 266.295C558.726 267.841 559.491 269.833 559.491 272.273C559.491 274.273 558.916 276.061 557.764 277.636C556.628 279.212 555.037 280.455 552.991 281.364C550.946 282.273 548.567 282.727 545.855 282.727C542.295 282.727 539.348 281.955 537.014 280.409C534.681 278.864 533.204 276.606 532.582 273.636L537.673 272.364C538.158 274.242 539.075 275.652 540.423 276.591C541.787 277.53 543.567 278 545.764 278C548.264 278 550.249 277.47 551.719 276.409C553.204 275.333 553.946 274.045 553.946 272.545C553.946 271.333 553.522 270.318 552.673 269.5C551.825 268.667 550.522 268.045 548.764 267.636L542.946 266.273C539.749 265.515 537.401 264.341 535.901 262.75C534.416 261.144 533.673 259.136 533.673 256.727C533.673 254.758 534.226 253.015 535.332 251.5C536.454 249.985 537.976 248.795 539.901 247.932C541.84 247.068 544.037 246.636 546.491 246.636C549.946 246.636 552.658 247.394 554.628 248.909C556.613 250.424 558.022 252.424 558.855 254.909ZM582.202 282.727C578.838 282.727 575.937 281.985 573.497 280.5C571.073 279 569.202 276.909 567.884 274.227C566.58 271.53 565.929 268.394 565.929 264.818C565.929 261.242 566.58 258.091 567.884 255.364C569.202 252.621 571.035 250.485 573.384 248.955C575.747 247.409 578.505 246.636 581.656 246.636C583.474 246.636 585.27 246.939 587.043 247.545C588.815 248.152 590.429 249.136 591.884 250.5C593.338 251.848 594.497 253.636 595.361 255.864C596.224 258.091 596.656 260.833 596.656 264.091V266.364H569.747V261.727H591.202C591.202 259.758 590.808 258 590.02 256.455C589.247 254.909 588.141 253.689 586.702 252.795C585.277 251.902 583.596 251.455 581.656 251.455C579.52 251.455 577.671 251.985 576.111 253.045C574.565 254.091 573.376 255.455 572.543 257.136C571.709 258.818 571.293 260.621 571.293 262.545V265.636C571.293 268.273 571.747 270.508 572.656 272.341C573.58 274.159 574.861 275.545 576.497 276.5C578.134 277.439 580.035 277.909 582.202 277.909C583.611 277.909 584.884 277.712 586.02 277.318C587.171 276.909 588.164 276.303 588.997 275.5C589.83 274.682 590.474 273.667 590.929 272.455L596.111 273.909C595.565 275.667 594.649 277.212 593.361 278.545C592.073 279.864 590.482 280.894 588.588 281.636C586.694 282.364 584.565 282.727 582.202 282.727ZM413.903 327H408.267C407.934 325.379 407.35 323.955 406.517 322.727C405.699 321.5 404.699 320.47 403.517 319.636C402.35 318.788 401.055 318.152 399.631 317.727C398.206 317.303 396.722 317.091 395.176 317.091C392.358 317.091 389.805 317.803 387.517 319.227C385.244 320.652 383.434 322.75 382.085 325.523C380.752 328.295 380.085 331.697 380.085 335.727C380.085 339.758 380.752 343.159 382.085 345.932C383.434 348.705 385.244 350.803 387.517 352.227C389.805 353.652 392.358 354.364 395.176 354.364C396.722 354.364 398.206 354.152 399.631 353.727C401.055 353.303 402.35 352.674 403.517 351.841C404.699 350.992 405.699 349.955 406.517 348.727C407.35 347.485 407.934 346.061 408.267 344.455H413.903C413.479 346.833 412.706 348.962 411.585 350.841C410.464 352.72 409.07 354.318 407.403 355.636C405.737 356.939 403.866 357.932 401.79 358.614C399.729 359.295 397.525 359.636 395.176 359.636C391.206 359.636 387.676 358.667 384.585 356.727C381.494 354.788 379.063 352.03 377.29 348.455C375.517 344.879 374.631 340.636 374.631 335.727C374.631 330.818 375.517 326.576 377.29 323C379.063 319.424 381.494 316.667 384.585 314.727C387.676 312.788 391.206 311.818 395.176 311.818C397.525 311.818 399.729 312.159 401.79 312.841C403.866 313.523 405.737 314.523 407.403 315.841C409.07 317.144 410.464 318.735 411.585 320.614C412.706 322.477 413.479 324.606 413.903 327ZM427.648 312.455V359H422.284V312.455H427.648ZM437.472 359V324.091H442.835V359H437.472ZM440.199 318.273C439.153 318.273 438.252 317.917 437.494 317.205C436.752 316.492 436.381 315.636 436.381 314.636C436.381 313.636 436.752 312.78 437.494 312.068C438.252 311.356 439.153 311 440.199 311C441.244 311 442.138 311.356 442.881 312.068C443.638 312.78 444.017 313.636 444.017 314.636C444.017 315.636 443.638 316.492 442.881 317.205C442.138 317.917 441.244 318.273 440.199 318.273ZM466.841 359.727C463.568 359.727 460.75 358.955 458.386 357.409C456.023 355.864 454.205 353.735 452.932 351.023C451.659 348.311 451.023 345.212 451.023 341.727C451.023 338.182 451.674 335.053 452.977 332.341C454.295 329.614 456.129 327.485 458.477 325.955C460.841 324.409 463.598 323.636 466.75 323.636C469.205 323.636 471.417 324.091 473.386 325C475.356 325.909 476.97 327.182 478.227 328.818C479.485 330.455 480.265 332.364 480.568 334.545H475.205C474.795 332.955 473.886 331.545 472.477 330.318C471.083 329.076 469.205 328.455 466.841 328.455C464.75 328.455 462.917 329 461.341 330.091C459.78 331.167 458.561 332.689 457.682 334.659C456.818 336.614 456.386 338.909 456.386 341.545C456.386 344.242 456.811 346.591 457.659 348.591C458.523 350.591 459.735 352.144 461.295 353.25C462.871 354.356 464.72 354.909 466.841 354.909C468.235 354.909 469.5 354.667 470.636 354.182C471.773 353.697 472.735 353 473.523 352.091C474.311 351.182 474.871 350.091 475.205 348.818H480.568C480.265 350.879 479.515 352.735 478.318 354.386C477.136 356.023 475.568 357.326 473.614 358.295C471.674 359.25 469.417 359.727 466.841 359.727ZM493.409 346.273L493.318 339.636H494.409L509.682 324.091H516.318L500.045 340.545H499.591L493.409 346.273ZM488.409 359V312.455H493.773V359H488.409ZM510.591 359L496.955 341.727L500.773 338L517.409 359H510.591ZM541.222 359V324.091H546.403V329.545H546.858C547.585 327.682 548.759 326.235 550.381 325.205C552.002 324.159 553.949 323.636 556.222 323.636C558.525 323.636 560.441 324.159 561.972 325.205C563.517 326.235 564.722 327.682 565.585 329.545H565.949C566.843 327.742 568.184 326.311 569.972 325.25C571.759 324.174 573.903 323.636 576.403 323.636C579.525 323.636 582.078 324.614 584.062 326.568C586.047 328.508 587.04 331.53 587.04 335.636V359H581.676V335.636C581.676 333.061 580.972 331.22 579.562 330.114C578.153 329.008 576.494 328.455 574.585 328.455C572.131 328.455 570.229 329.197 568.881 330.682C567.532 332.152 566.858 334.015 566.858 336.273V359H561.403V335.091C561.403 333.106 560.759 331.508 559.472 330.295C558.184 329.068 556.525 328.455 554.494 328.455C553.1 328.455 551.797 328.826 550.585 329.568C549.388 330.311 548.419 331.341 547.676 332.659C546.949 333.962 546.585 335.47 546.585 337.182V359H541.222ZM611.483 359.727C608.119 359.727 605.218 358.985 602.778 357.5C600.354 356 598.483 353.909 597.165 351.227C595.862 348.53 595.21 345.394 595.21 341.818C595.21 338.242 595.862 335.091 597.165 332.364C598.483 329.621 600.316 327.485 602.665 325.955C605.028 324.409 607.786 323.636 610.938 323.636C612.756 323.636 614.551 323.939 616.324 324.545C618.097 325.152 619.71 326.136 621.165 327.5C622.619 328.848 623.778 330.636 624.642 332.864C625.506 335.091 625.938 337.833 625.938 341.091V343.364H599.028V338.727H620.483C620.483 336.758 620.089 335 619.301 333.455C618.528 331.909 617.422 330.689 615.983 329.795C614.559 328.902 612.877 328.455 610.938 328.455C608.801 328.455 606.953 328.985 605.392 330.045C603.847 331.091 602.657 332.455 601.824 334.136C600.991 335.818 600.574 337.621 600.574 339.545V342.636C600.574 345.273 601.028 347.508 601.938 349.341C602.862 351.159 604.142 352.545 605.778 353.5C607.415 354.439 609.316 354.909 611.483 354.909C612.892 354.909 614.165 354.712 615.301 354.318C616.453 353.909 617.445 353.303 618.278 352.5C619.112 351.682 619.756 350.667 620.21 349.455L625.392 350.909C624.847 352.667 623.93 354.212 622.642 355.545C621.354 356.864 619.763 357.894 617.869 358.636C615.975 359.364 613.847 359.727 611.483 359.727Z" fill="white"/>
</g>
<g id="PLACE_TUTORIAL">
<rect id="Rectangle 2" x="360" y="56" width="285" height="155" fill="#BA2B2B"/>
<path id="Tutorial" d="M390.685 97.4545V92.4545H425.594V97.4545H410.957V139H405.321V97.4545H390.685ZM450.815 124.727V104.091H456.179V139H450.815V133.091H450.452C449.634 134.864 448.361 136.371 446.634 137.614C444.906 138.841 442.724 139.455 440.088 139.455C437.906 139.455 435.967 138.977 434.27 138.023C432.573 137.053 431.24 135.598 430.27 133.659C429.3 131.705 428.815 129.242 428.815 126.273V104.091H434.179V125.909C434.179 128.455 434.891 130.485 436.315 132C437.755 133.515 439.588 134.273 441.815 134.273C443.149 134.273 444.505 133.932 445.884 133.25C447.277 132.568 448.444 131.523 449.384 130.114C450.338 128.705 450.815 126.909 450.815 124.727ZM481.185 104.091V108.636H463.094V104.091H481.185ZM468.366 95.7273H473.73V129C473.73 130.515 473.95 131.652 474.389 132.409C474.844 133.152 475.42 133.652 476.116 133.909C476.829 134.152 477.579 134.273 478.366 134.273C478.957 134.273 479.442 134.242 479.821 134.182C480.2 134.106 480.503 134.045 480.73 134L481.821 138.818C481.457 138.955 480.95 139.091 480.298 139.227C479.647 139.379 478.821 139.455 477.821 139.455C476.306 139.455 474.821 139.129 473.366 138.477C471.927 137.826 470.73 136.833 469.776 135.5C468.836 134.167 468.366 132.485 468.366 130.455V95.7273ZM503.06 139.727C499.908 139.727 497.143 138.977 494.764 137.477C492.401 135.977 490.552 133.879 489.219 131.182C487.901 128.485 487.241 125.333 487.241 121.727C487.241 118.091 487.901 114.917 489.219 112.205C490.552 109.492 492.401 107.386 494.764 105.886C497.143 104.386 499.908 103.636 503.06 103.636C506.211 103.636 508.969 104.386 511.332 105.886C513.711 107.386 515.56 109.492 516.878 112.205C518.211 114.917 518.878 118.091 518.878 121.727C518.878 125.333 518.211 128.485 516.878 131.182C515.56 133.879 513.711 135.977 511.332 137.477C508.969 138.977 506.211 139.727 503.06 139.727ZM503.06 134.909C505.454 134.909 507.423 134.295 508.969 133.068C510.514 131.841 511.658 130.227 512.401 128.227C513.143 126.227 513.514 124.061 513.514 121.727C513.514 119.394 513.143 117.22 512.401 115.205C511.658 113.189 510.514 111.561 508.969 110.318C507.423 109.076 505.454 108.455 503.06 108.455C500.666 108.455 498.696 109.076 497.151 110.318C495.605 111.561 494.461 113.189 493.719 115.205C492.976 117.22 492.605 119.394 492.605 121.727C492.605 124.061 492.976 126.227 493.719 128.227C494.461 130.227 495.605 131.841 497.151 133.068C498.696 134.295 500.666 134.909 503.06 134.909ZM527.065 139V104.091H532.247V109.364H532.611C533.247 107.636 534.399 106.235 536.065 105.159C537.732 104.083 539.611 103.545 541.702 103.545C542.096 103.545 542.588 103.553 543.179 103.568C543.77 103.583 544.217 103.606 544.52 103.636V109.091C544.338 109.045 543.921 108.977 543.27 108.886C542.634 108.78 541.959 108.727 541.247 108.727C539.55 108.727 538.035 109.083 536.702 109.795C535.384 110.492 534.338 111.462 533.565 112.705C532.808 113.932 532.429 115.333 532.429 116.909V139H527.065ZM550.878 139V104.091H556.241V139H550.878ZM553.605 98.2727C552.56 98.2727 551.658 97.9167 550.901 97.2045C550.158 96.4924 549.787 95.6364 549.787 94.6364C549.787 93.6364 550.158 92.7803 550.901 92.0682C551.658 91.3561 552.56 91 553.605 91C554.651 91 555.545 91.3561 556.287 92.0682C557.045 92.7803 557.423 93.6364 557.423 94.6364C557.423 95.6364 557.045 96.4924 556.287 97.2045C555.545 97.9167 554.651 98.2727 553.605 98.2727ZM576.338 139.818C574.126 139.818 572.118 139.402 570.315 138.568C568.512 137.72 567.08 136.5 566.02 134.909C564.959 133.303 564.429 131.364 564.429 129.091C564.429 127.091 564.823 125.47 565.611 124.227C566.399 122.97 567.452 121.985 568.77 121.273C570.088 120.561 571.543 120.03 573.134 119.682C574.74 119.318 576.353 119.03 577.974 118.818C580.096 118.545 581.815 118.341 583.134 118.205C584.467 118.053 585.437 117.803 586.043 117.455C586.664 117.106 586.974 116.5 586.974 115.636V115.455C586.974 113.212 586.361 111.47 585.134 110.227C583.921 108.985 582.08 108.364 579.611 108.364C577.05 108.364 575.043 108.924 573.588 110.045C572.134 111.167 571.111 112.364 570.52 113.636L565.429 111.818C566.338 109.697 567.55 108.045 569.065 106.864C570.596 105.667 572.262 104.833 574.065 104.364C575.884 103.879 577.671 103.636 579.429 103.636C580.55 103.636 581.838 103.773 583.293 104.045C584.762 104.303 586.179 104.841 587.543 105.659C588.921 106.477 590.065 107.712 590.974 109.364C591.884 111.015 592.338 113.227 592.338 116V139H586.974V134.273H586.702C586.338 135.03 585.732 135.841 584.884 136.705C584.035 137.568 582.906 138.303 581.497 138.909C580.088 139.515 578.368 139.818 576.338 139.818ZM577.156 135C579.277 135 581.065 134.583 582.52 133.75C583.99 132.917 585.096 131.841 585.838 130.523C586.596 129.205 586.974 127.818 586.974 126.364V121.455C586.747 121.727 586.247 121.977 585.474 122.205C584.717 122.417 583.838 122.606 582.838 122.773C581.853 122.924 580.891 123.061 579.952 123.182C579.027 123.288 578.277 123.379 577.702 123.455C576.308 123.636 575.005 123.932 573.793 124.341C572.596 124.735 571.626 125.333 570.884 126.136C570.156 126.924 569.793 128 569.793 129.364C569.793 131.227 570.482 132.636 571.861 133.591C573.255 134.53 575.02 135 577.156 135ZM607.491 92.4545V139H602.128V92.4545H607.491Z" fill="white"/>
</g>
</g>
</svg>
